<svg version="1.1" id="Layer_1" xmlns="http://www.w3.org/2000/svg" x="0" y="0" width="612" height="612" viewBox="0 90 612 612" xml:space="preserve"><g id="Page-1-Copy"><g id="H2O_Logo_2017"><path id="Fill-1" fill="#FFE52B" d="M0 702h612V90H0z"/><path id="Fill-2" fill="gray" d="M533.587 304.2c-5.737 0-10.519 4.781-10.519 10.519s4.781 10.519 10.519 10.519c5.737 0 10.519-4.781 10.519-10.519s-4.781-10.519-10.519-10.519zm-6.693 127.181h14.344v-85.106h-14.344v85.106zm-71.719-73.631c18.169 0 28.688 13.387 28.688 30.6 0 17.212-9.562 32.513-28.688 32.513-18.169 0-27.731-15.3-27.731-32.512 0-16.257 10.518-30.601 27.731-30.601zm42.075-11.475h-14.344v12.431c-6.694-8.606-17.212-14.344-29.644-14.344-25.819 0-41.119 21.038-41.119 44.944s16.256 44.944 41.119 44.944c12.431 0 21.994-4.781 29.644-14.344v11.475h14.344v-85.106zm-109.969 66.937c-5.737 0-10.519 4.781-10.519 9.562 0 5.737 4.781 10.519 10.519 10.519s10.519-4.781 10.519-10.519c0-4.78-4.781-9.562-10.519-9.562z"/><path id="Fill-4" d="M95.625 366.356v-43.031H66.938V434.25h28.687v-44.944h41.119v44.944h28.687V323.325h-28.687v43.031z"/><g id="Group-9" transform="translate(18.827 24)" fill="#231F20"><path id="Fill-5" d="M199.453 445.631l12.431-11.475c7.65-7.65 12.431-14.344 12.431-25.819 0-17.212-14.344-28.688-30.6-28.688-19.125 0-30.6 12.431-30.6 30.6h22.95v-3.825c0-5.738 2.869-9.562 8.606-9.562s8.606 5.737 8.606 10.519c0 7.65-4.781 14.344-8.606 20.081l-33.469 35.381h64.069v-17.212h-25.818"/><path id="Fill-7" d="M289.341 323.231c17.212 0 31.556 14.344 31.556 29.644 0 19.125-14.344 33.469-31.556 33.469-17.212 0-31.556-14.344-31.556-33.469 0-15.3 14.343-29.644 31.556-29.644m0-27.731c-31.556 0-61.2 23.906-61.2 57.375 0 36.337 25.819 61.2 61.2 61.2s61.2-25.819 61.2-61.2c0-33.469-29.644-57.375-61.2-57.375"/></g></g></g></svg>